# xmcd CD database file
#
# Track frame offsets:
#	150
#	11702
#	23180
#	35677
#	46137
#	60705
#	76917
#	90117
#	104680
#	115015
#	126010
#	139402
#	152242
#	166345
#	180745
#	191805
#	207352
#	222945
#	237485
#
# Disc length: 3453 seconds
#
# Revision: 0
# Processed by: cddbd v1.4PL0 Copyright (c) Steve Scherf et al.
# Submitted via: CDex 1.50Beta7
#
DISCID=090d7b13
DTITLE=Mats Rådberg and Rankarna - Country Classics disc 2 - Are You Ready For The Country?
DYEAR=1995
DGENRE=Country
TTITLE0=Bidin' My Time
TTITLE1=Autumn Feeling
TTITLE2=Diggy, Diggy Lo
TTITLE3=If You Got It
TTITLE4=In Some Room Above The Street
TTITLE5=Trying Hard
TTITLE6=Sto The World (And Let Me Off)
TTITLE7=White Clouds, Dark Shadows
TTITLE8=Silver Eagle
TTITLE9=Just A Hollywood Star
TTITLE10=Are You Ready For The Country
TTITLE11=I Wasn't Born In Tennesse
TTITLE12=Back Home In Huntsville Again
TTITLE13=If I Said You Have A Beautiful Body
TTITLE14=Pure Love
TTITLE15=Lay Down Beside Me
TTITLE16=Drivin' My Life Away
TTITLE17=You Were Always A Showgirl
TTITLE18=The Bottle Let Me Down
EXTD=YEAR: 1995
EXTT0=
EXTT1=
EXTT2=
EXTT3=
EXTT4=
EXTT5=
EXTT6=
EXTT7=
EXTT8=
EXTT9=
EXTT10=
EXTT11=
EXTT12=
EXTT13=
EXTT14=
EXTT15=
EXTT16=
EXTT17=
EXTT18=
PLAYORDER=
